<svg xmlns="http://www.w3.org/2000/svg" xmlns:xlink="http://www.w3.org/1999/xlink" xmlns:lucid="lucid" width="874.5" height="740.2"><g transform="translate(-29.074999999999996 -20)" lucid:page-tab-id="0_0"><path d="M465.27 368.4l-15.73-.98-49.54 3.2 13.97 31.63 51.3-33.86z" fill="#fbbf93"/><path d="M413.78 317.87l-13.78 7v35.12h13.78l19.5-17.74-19.5-24.4z" fill="#9d5025"/><path d="M465.27 368.38l-51.3 4.3v29.57l51.3-14V368.4zM438.78 360h-25v-42.13l25 6.78V360z" fill="#f58536"/><path d="M474.72 359.95l17.94.04v-34.56l-17.94 2.97v31.55z" fill="#9d5025"/><path d="M439.57 331.9l16.14-16.25L492.66 337l-17.94 2.53-35.13-7.62z" fill="#6b3a19"/><path d="M423.06 360h26.38l13.83-27.72L449.44 300l-26.38 13.2V360z" fill="#9d5025"/><path d="M449.44 300v60h14.82v-31.56l28.4 8.58V360h6.33v-35.16L449.43 300z" fill="#f58536"/><path d="M400 370.6l13.98 2.06v29.6l-13.98-7V370.6z" fill="#9d5025"/><path d="M499 370.48L475.14 369l-52.1 5.05L449.42 420l49.6-49.52z" fill="#fbbf93"/><path d="M499 370.48l-49.56 7.42V420L499 395.12v-24.65z" fill="#f58536"/><path d="M423.06 374.05l26.38 3.86V420l-26.38-13.2v-32.75z" fill="#9d5025"/><path d="M844.27 628.4l-15.73-.98-49.54 3.2 13.97 31.63 51.3-33.86z" fill="#fbbf93"/><path d="M792.78 577.87l-13.78 7v35.12h13.78l19.5-17.74-19.5-24.4z" fill="#9d5025"/><path d="M844.27 628.38l-51.3 4.3v29.57l51.3-14V628.4zM817.78 620h-25v-42.13l25 6.78V620z" fill="#f58536"/><path d="M853.72 619.95l17.94.04v-34.56l-17.94 2.97v31.55z" fill="#9d5025"/><path d="M818.57 591.9l16.14-16.25L871.66 597l-17.94 2.53-35.13-7.62z" fill="#6b3a19"/><path d="M802.06 620h26.38l13.83-27.72L828.44 560l-26.38 13.2V620z" fill="#9d5025"/><path d="M828.44 560v60h14.82v-31.56l28.4 8.58V620h6.33v-35.16L828.43 560z" fill="#f58536"/><path d="M779 630.6l13.98 2.06v29.6l-13.98-7V630.6z" fill="#9d5025"/><path d="M878 630.48L854.14 629l-52.1 5.05L828.42 680l49.6-49.52z" fill="#fbbf93"/><path d="M878 630.48l-49.56 7.42V680L878 655.12v-24.65z" fill="#f58536"/><path d="M802.06 634.05l26.38 3.86V680l-26.38-13.2v-32.75z" fill="#9d5025"/><use xlink:href="#a" transform="matrix(1,0,0,1,779,680) translate(29.875 14.4)"/><use xlink:href="#b" transform="matrix(1,0,0,1,779,680) translate(6.549999999999997 36)"/><use xlink:href="#c" transform="matrix(1,0,0,1,779,680) translate(-0.9250000000000043 57.6)"/><path d="M844.27 108.4l-15.73-.98-49.54 3.2 13.97 31.63 51.3-33.86z" fill="#fbbf93"/><path d="M792.78 57.87l-13.78 7v35.12h13.78l19.5-17.74-19.5-24.4z" fill="#9d5025"/><path d="M844.27 108.38l-51.3 4.3v29.57l51.3-14V108.4zM817.78 100h-25V57.86l25 6.78V100z" fill="#f58536"/><path d="M853.72 99.95l17.94.04V65.43l-17.94 2.97v31.55z" fill="#9d5025"/><path d="M818.57 71.9l16.14-16.25L871.66 77l-17.94 2.53-35.13-7.62z" fill="#6b3a19"/><path d="M802.06 100h26.38l13.83-27.72L828.44 40l-26.38 13.2V100z" fill="#9d5025"/><path d="M828.44 40v60h14.82V68.44l28.4 8.58V100h6.33V64.84L828.43 40z" fill="#f58536"/><path d="M779 110.6l13.98 2.06v29.6l-13.98-7V110.6z" fill="#9d5025"/><path d="M878 110.48L854.14 109l-52.1 5.05L828.42 160l49.6-49.52z" fill="#fbbf93"/><path d="M878 110.48l-49.56 7.42V160L878 135.12v-24.65z" fill="#f58536"/><path d="M802.06 114.05l26.38 3.86V160l-26.38-13.2v-32.75z" fill="#9d5025"/><use xlink:href="#a" transform="matrix(1,0,0,1,779,160) translate(29.875 14.4)"/><use xlink:href="#d" transform="matrix(1,0,0,1,779,160) translate(-3.4250000000000043 36)"/><use xlink:href="#c" transform="matrix(1,0,0,1,779,160) translate(-0.9250000000000043 57.6)"/><path d="M844.27 368.4l-15.73-.98-49.54 3.2 13.97 31.63 51.3-33.86z" fill="#fbbf93"/><path d="M792.78 317.87l-13.78 7v35.12h13.78l19.5-17.74-19.5-24.4z" fill="#9d5025"/><path d="M844.27 368.38l-51.3 4.3v29.57l51.3-14V368.4zM817.78 360h-25v-42.13l25 6.78V360z" fill="#f58536"/><path d="M853.72 359.95l17.94.04v-34.56l-17.94 2.97v31.55z" fill="#9d5025"/><path d="M818.57 331.9l16.14-16.25L871.66 337l-17.94 2.53-35.13-7.62z" fill="#6b3a19"/><path d="M802.06 360h26.38l13.83-27.72L828.44 300l-26.38 13.2V360z" fill="#9d5025"/><path d="M828.44 300v60h14.82v-31.56l28.4 8.58V360h6.33v-35.16L828.43 300z" fill="#f58536"/><path d="M779 370.6l13.98 2.06v29.6l-13.98-7V370.6z" fill="#9d5025"/><path d="M878 370.48L854.14 369l-52.1 5.05L828.42 420l49.6-49.52z" fill="#fbbf93"/><path d="M878 370.48l-49.56 7.42V420L878 395.12v-24.65z" fill="#f58536"/><path d="M802.06 374.05l26.38 3.86V420l-26.38-13.2v-32.75z" fill="#9d5025"/><use xlink:href="#a" transform="matrix(1,0,0,1,779,420) translate(29.875 14.4)"/><use xlink:href="#e" transform="matrix(1,0,0,1,779,420) translate(19.025 36)"/><use xlink:href="#c" transform="matrix(1,0,0,1,779,420) translate(-0.9250000000000043 57.6)"/><path d="M685.7 101.18c0 15.9-14.7 28.8-32.84 28.8-18.14 0-32.86-12.9-32.86-28.8s14.72-28.82 32.86-28.82c18.13 0 32.85 12.9 32.85 28.82z" fill="#9d5025"/><path d="M685.7 98.81c0 15.92-14.7 28.83-32.84 28.83-18.14 0-32.86-12.9-32.86-28.8 0-15.92 14.72-28.83 32.86-28.83C671 70 685.7 82.9 685.7 98.8z" fill="#f58536"/><path d="M684.2 98.9l-11.66-5.87v3.52h-17v-14.9h4.02l-6.7-10.22-6.7 10.22h4v14.9h-17v-3.52l-11.65 5.88 11.67 5.9v-3.53h17v14.9h-4.02l6.7 10.22 6.7-10.23h-4v-14.9h17v3.52l11.65-5.9z" fill="#fff"/><path d="M643.87 105.75c-3.35 0-5.84-2.2-5.84-4.2v-.43c.15-2.04 1.54-3.68 3.7-4.4l.22-.04v-.3c0-3.62 3.32-6.54 7.44-6.54 3 0 5.54 1.43 6.78 3.82l.15.28.27-.17c1.66-1 3.9-.62 5.04.83.4.5.62 1.05.65 1.68v.2h.23c2.8.28 4.9 2.17 5.16 4.6v.46c0 2-2.5 4.2-5.85 4.2z" fill="#f58536"/><path d="M649.38 90.77c2.58 0 4.74 1.23 5.82 3.28l.66 1.3 1.3-.8c1.18-.7 2.77-.44 3.56.55.3.38.42.75.45 1.2v1.05l1.2.1c2.23.24 3.88 1.72 4.17 3.66v.46c0 1.5-2.07 3.24-4.74 3.24h-17.94c-2.67 0-4.74-1.75-4.74-3.24v-.45c.16-1.58 1.24-2.86 2.92-3.45l1.02-.26v-1.03c0-3.08 2.83-5.58 6.35-5.6m0-1.9c-4.56 0-8.28 3.13-8.5 7.14-2.32 1-3.75 2.86-3.9 5.13v.44c0 2.73 3.23 5.14 6.92 5.14h17.9c3.7 0 6.94-2.4 6.94-5.13v-.44c-.25-2.75-2.4-4.9-5.5-5.47-.06-.3-.15-.57-.28-.86-1.02-2.1-3.78-3.08-6.2-2.2-1.55-2.36-4.22-3.7-7.37-3.7z" fill="#fff"/><use xlink:href="#f" transform="matrix(1,0,0,1,620,130) translate(14.524999999999999 14.4)"/><use xlink:href="#g" transform="matrix(1,0,0,1,620,130) translate(2.049999999999997 36)"/><path d="M449.5 281.53V110h153.57" stroke="#000" stroke-width="2" fill="none"/><path d="M449.5 296.8l-4.64-14.27h9.28zM618.34 110l-14.27 4.64v-9.28z" stroke="#000" stroke-width="2"/><path d="M685.7 371.18c0 15.9-14.7 28.8-32.84 28.8-18.14 0-32.86-12.9-32.86-28.8s14.72-28.82 32.86-28.82c18.13 0 32.85 12.9 32.85 28.82z" fill="#9d5025"/><path d="M685.7 368.8c0 15.92-14.7 28.83-32.84 28.83-18.14 0-32.86-12.9-32.86-28.8 0-15.92 14.72-28.83 32.86-28.83 18.13 0 32.85 12.9 32.85 28.8z" fill="#f58536"/><path d="M684.2 368.9l-11.66-5.87v3.52h-17v-14.9h4.02l-6.7-10.22-6.7 10.22h4v14.9h-17v-3.52l-11.65 5.88 11.67 5.9v-3.53h17v14.9h-4.02l6.7 10.22 6.7-10.23h-4v-14.9h17v3.52l11.65-5.9z" fill="#fff"/><path d="M643.87 375.75c-3.35 0-5.84-2.2-5.84-4.2v-.43c.15-2.04 1.54-3.68 3.7-4.4l.22-.04v-.3c0-3.62 3.32-6.54 7.44-6.54 3 0 5.54 1.43 6.78 3.82l.15.28.27-.17c1.66-1 3.9-.62 5.04.83.4.5.62 1.05.65 1.68v.2h.23c2.8.28 4.9 2.17 5.16 4.6v.46c0 2-2.5 4.2-5.85 4.2z" fill="#f58536"/><path d="M649.38 360.77c2.58 0 4.74 1.23 5.82 3.28l.66 1.3 1.3-.8c1.18-.7 2.77-.44 3.56.55.3.38.42.75.45 1.2v1.05l1.2.1c2.23.24 3.88 1.72 4.17 3.66v.46c0 1.5-2.07 3.24-4.74 3.24h-17.94c-2.67 0-4.74-1.75-4.74-3.24v-.45c.16-1.58 1.24-2.86 2.92-3.45l1.02-.26v-1.03c0-3.08 2.83-5.58 6.35-5.6m0-1.9c-4.56 0-8.28 3.13-8.5 7.14-2.32 1-3.75 2.86-3.9 5.13v.44c0 2.73 3.23 5.14 6.92 5.14h17.9c3.7 0 6.94-2.4 6.94-5.13v-.44c-.25-2.75-2.4-4.9-5.5-5.47-.06-.3-.15-.57-.28-.86-1.02-2.1-3.78-3.08-6.2-2.2-1.55-2.36-4.22-3.7-7.37-3.7z" fill="#fff"/><path d="M685.7 631.18c0 15.9-14.7 28.8-32.84 28.8-18.14 0-32.86-12.9-32.86-28.8s14.72-28.82 32.86-28.82c18.13 0 32.85 12.9 32.85 28.82z" fill="#9d5025"/><path d="M685.7 628.82c0 15.9-14.7 28.8-32.84 28.8-18.14 0-32.86-12.9-32.86-28.8S634.72 600 652.86 600c18.13 0 32.85 12.9 32.85 28.82z" fill="#f58536"/><path d="M684.2 628.9l-11.66-5.87v3.52h-17v-14.9h4.02l-6.7-10.22-6.7 10.22h4v14.9h-17v-3.52l-11.65 5.88 11.67 5.9v-3.53h17v14.9h-4.02l6.7 10.22 6.7-10.23h-4v-14.9h17v3.52l11.65-5.9z" fill="#fff"/><path d="M643.87 635.75c-3.35 0-5.84-2.2-5.84-4.2v-.43c.15-2.04 1.54-3.68 3.7-4.4l.22-.04v-.3c0-3.62 3.32-6.54 7.44-6.54 3 0 5.54 1.43 6.78 3.82l.15.28.27-.17c1.66-1 3.9-.62 5.04.83.4.5.62 1.05.65 1.68v.2h.23c2.8.28 4.9 2.17 5.16 4.6v.46c0 2-2.5 4.2-5.85 4.2z" fill="#f58536"/><path d="M649.38 620.77c2.58 0 4.74 1.23 5.82 3.28l.66 1.3 1.3-.8c1.18-.7 2.77-.44 3.56.55.3.38.42.75.45 1.2v1.05l1.2.1c2.23.24 3.88 1.72 4.17 3.66v.46c0 1.5-2.07 3.24-4.74 3.24h-17.94c-2.67 0-4.74-1.75-4.74-3.24v-.45c.16-1.58 1.24-2.86 2.92-3.45l1.02-.26v-1.03c0-3.08 2.83-5.58 6.35-5.6m0-1.9c-4.56 0-8.28 3.13-8.5 7.14-2.32 1-3.75 2.86-3.9 5.13v.44c0 2.73 3.23 5.14 6.92 5.14h17.9c3.7 0 6.94-2.4 6.94-5.13v-.44c-.25-2.75-2.4-4.9-5.5-5.47-.06-.3-.15-.57-.28-.86-1.02-2.1-3.78-3.08-6.2-2.2-1.55-2.36-4.22-3.7-7.37-3.7z" fill="#fff"/><path d="M704.2 630h65.9" stroke="#000" stroke-width="2" fill="none"/><path d="M688.92 630l14.27-4.64v9.28z" stroke="#000" stroke-width="2"/><path d="M785.36 630l-.8.26-5.5.36 3.03.44-2.54.83-.56-1.28h.06-.06v1.45l-7.9 2.57v-9.28z"/><path d="M788.6 630l-8.08.52 1.6-.52-10.02-3.26v6.52l6.9-2.24v2.1l-8.9 2.9v-12.03zm-4.28 1.4l-4.36 1.4-.8-1.83.7-.23z"/><path d="M538.5 370h63.03" stroke="#000" stroke-width="2" fill="none"/><path d="M523.24 370l14.26-4.64v9.28zM616.8 370l-14.27 4.64v-9.28z" stroke="#000" stroke-width="2"/><path d="M704.2 370h65.9" stroke="#000" stroke-width="2" fill="none"/><path d="M688.92 370l14.27-4.64v9.28z" stroke="#000" stroke-width="2"/><path d="M785.36 370l-.8.26-5.5.36 3.03.44-2.54.83-.56-1.28h.06-.06v1.45l-7.9 2.57v-9.28z"/><path d="M788.6 370l-8.08.52 1.6-.52-10.02-3.26v6.52l6.9-2.24v2.1l-8.9 2.9v-12.03zm-4.28 1.4l-4.36 1.4-.8-1.83.7-.23z"/><path d="M601.53 630H449.5V438.46" stroke="#000" stroke-width="2" fill="none"/><path d="M616.8 630l-14.27 4.64v-9.28zM449.5 423.2l4.64 14.26h-9.28z" stroke="#000" stroke-width="2"/><path d="M113 410H61.7c-.93 0-1.7-.8-1.7-1.68v-72.56c0-3.2 2.57-5.76 5.74-5.76h43.22c3.17 0 5.74 2.56 5.74 5.76v72.56c0 .88-.77 1.68-1.7 1.68zm-49.55-3.44h47.86v-70.8h-.05c0-1.28-1.04-2.32-2.3-2.32h-43.2c-1.26 0-2.3 1.04-2.36 2.32z" stroke="#fff" stroke-opacity="0" fill="#232f3e"/><path d="M77.74 350.95h-6.4c-.95 0-1.72-.75-1.72-1.7V338.1c0-.96.77-1.72 1.7-1.72h6.42c.95 0 1.7.76 1.7 1.7v11.17c0 .95-.75 1.7-1.7 1.7zm-4.7-3.4h3v-7.76h-3zM90.56 350.95h-6.4c-.95 0-1.72-.75-1.72-1.7V338.1c0-.96.77-1.72 1.7-1.72h6.42c.95 0 1.7.76 1.7 1.7v11.17c0 .95-.75 1.7-1.7 1.7zm-4.7-3.4h3v-7.76h-3zM103.38 350.95h-6.4c-.95 0-1.72-.75-1.72-1.7V338.1c0-.96.77-1.72 1.7-1.72h6.42c.95 0 1.7.76 1.7 1.7v11.17c0 .95-.75 1.7-1.7 1.7zm-4.7-3.4h3v-7.76h-3zM77.74 368.52h-6.4c-.95 0-1.72-.76-1.72-1.7v-11.18c0-.95.77-1.7 1.7-1.7h6.42c.95 0 1.7.75 1.7 1.7v11.17c0 .96-.75 1.72-1.7 1.72zm-4.7-3.4h3v-7.8h-3zM90.56 368.52h-6.4c-.95 0-1.72-.76-1.72-1.7v-11.18c0-.95.77-1.7 1.7-1.7h6.42c.95 0 1.7.75 1.7 1.7v11.17c0 .96-.75 1.72-1.7 1.72zm-4.7-3.4h3v-7.8h-3zM103.38 368.52h-6.4c-.95 0-1.72-.76-1.72-1.7v-11.18c0-.95.77-1.7 1.7-1.7h6.42c.95 0 1.7.75 1.7 1.7v11.17c0 .96-.75 1.72-1.7 1.72zm-4.7-3.4h3v-7.8h-3zM77.74 386.07h-6.4c-.95 0-1.72-.76-1.72-1.7V373.2c0-.94.77-1.7 1.7-1.7h6.42c.95 0 1.7.76 1.7 1.7v11.16c0 .95-.75 1.7-1.7 1.7zm-4.7-3.4h3v-7.76h-3zM90.56 386.07h-6.4c-.95 0-1.72-.76-1.72-1.7V373.2c0-.94.77-1.7 1.7-1.7h6.42c.95 0 1.7.76 1.7 1.7v11.16c0 .95-.75 1.7-1.7 1.7zm-4.7-3.4h3v-7.76h-3zM103.38 386.07h-6.4c-.95 0-1.72-.76-1.72-1.7V373.2c0-.94.77-1.7 1.7-1.7h6.42c.95 0 1.7.76 1.7 1.7v11.16c0 .95-.75 1.7-1.7 1.7zm-4.7-3.4h3v-7.76h-3z" stroke="#fff" stroke-opacity="0" fill="#232f3e"/><use xlink:href="#h" transform="matrix(1,0,0,1,30,419) translate(21.074999999999996 14.4)"/><path d="M305.7 361.18c0 15.9-14.7 28.8-32.84 28.8-18.14 0-32.86-12.9-32.86-28.8s14.72-28.82 32.86-28.82c18.13 0 32.85 12.9 32.85 28.82z" fill="#9d5025"/><path d="M305.7 358.8c0 15.92-14.7 28.83-32.84 28.83-18.14 0-32.86-12.9-32.86-28.8 0-15.92 14.72-28.83 32.86-28.83 18.13 0 32.85 12.9 32.85 28.8z" fill="#f58536"/><path d="M281.67 358.67v-5.8c-.5-3.58-3.6-6.3-7.68-6.75-4.84-.5-9.23 2.5-9.84 6.74v5.8h-4.5v12.9h26.4v-12.9zm-4.33 0h-8.95v-5.8c.02-2 1.87-3.58 4.14-3.56h.34c2.35-.06 4.36 1.5 4.52 3.56z" fill="#fff"/><use xlink:href="#i" transform="matrix(1,0,0,1,240.00000000000003,390) translate(14.524999999999999 14.4)"/><path d="M133.2 370h89.87" stroke="#000" stroke-width="2" fill="none"/><path d="M117.94 370l14.26-4.64v9.28zM238.34 370l-14.27 4.64v-9.28z" stroke="#000" stroke-width="2"/><path d="M322.58 370h68.52" stroke="#000" stroke-width="2" fill="none"/><path d="M307.3 370l14.28-4.64v9.28z" stroke="#000" stroke-width="2"/><path d="M406.36 370l-.8.26-5.5.36 3.03.44-2.54.83-.56-1.28h.06-.06v1.45l-7.9 2.57v-9.28z"/><path d="M409.6 370l-8.08.52 1.6-.52-10.02-3.26v6.52l6.9-2.24v2.1l-8.9 2.9v-12.03zm-4.28 1.4l-4.36 1.4-.8-1.83.7-.23z"/><path d="M702.58 110h67.52" stroke="#000" stroke-width="2" fill="none"/><path d="M687.3 110l14.28-4.64v9.28z" stroke="#000" stroke-width="2"/><path d="M785.36 110l-.8.26-5.5.36 3.03.44-2.54.83-.56-1.28h.06-.06v1.45l-7.9 2.57v-9.28z"/><path d="M788.6 110l-8.08.52 1.6-.52-10.02-3.26v6.52l6.9-2.24v2.1l-8.9 2.9v-12.03zm-4.28 1.4l-4.36 1.4-.8-1.83.7-.23z"/><path d="M280 440h140v60H280z" stroke="#000" stroke-opacity="0" stroke-width="2" fill="#fff" fill-opacity="0"/><g><use xlink:href="#j" transform="matrix(1,0,0,1,285,445) translate(26.9 17.799999999999997)"/><use xlink:href="#k" transform="matrix(1,0,0,1,285,445) translate(71.15 17.799999999999997)"/><use xlink:href="#l" transform="matrix(1,0,0,1,285,445) translate(32.574999999999996 39.4)"/></g><defs><path d="M127-220V0H93v-220H8v-28h204v28h-85" id="m"/><path d="M24-231v-30h32v30H24zM24 0v-190h32V0H24" id="n"/><path d="M59-47c-2 24 18 29 38 22v24C64 9 27 4 27-40v-127H5v-23h24l9-43h21v43h35v23H59v120" id="o"/><path d="M141-36C126-15 110 5 73 4 37 3 15-17 15-53c-1-64 63-63 125-63 3-35-9-54-41-54-24 1-41 7-42 31l-33-3c5-37 33-52 76-52 45 0 72 20 72 64v82c-1 20 7 32 28 27v20c-31 9-61-2-59-35zM48-53c0 20 12 33 32 33 41-3 63-29 60-74-43 2-92-5-92 41" id="p"/><path d="M117-194c89-4 53 116 60 194h-32v-121c0-31-8-49-39-48C34-167 62-67 57 0H25l-1-190h30c1 10-1 24 2 32 11-22 29-35 61-36" id="q"/><g id="a"><use transform="matrix(0.05,0,0,0.05,0,0)" xlink:href="#m"/><use transform="matrix(0.05,0,0,0.05,10.3,0)" xlink:href="#n"/><use transform="matrix(0.05,0,0,0.05,14.25,0)" xlink:href="#o"/><use transform="matrix(0.05,0,0,0.05,19.25,0)" xlink:href="#p"/><use transform="matrix(0.05,0,0,0.05,29.25,0)" xlink:href="#q"/></g><path d="M30-248c87 1 191-15 191 75 0 78-77 80-158 76V0H30v-248zm33 125c57 0 124 11 124-50 0-59-68-47-124-48v98" id="r"/><path d="M114-163C36-179 61-72 57 0H25l-1-190h30c1 12-1 29 2 39 6-27 23-49 58-41v29" id="s"/><path d="M100-194c62-1 85 37 85 99 1 63-27 99-86 99S16-35 15-95c0-66 28-99 85-99zM99-20c44 1 53-31 53-75 0-43-8-75-51-75s-53 32-53 75 10 74 51 75" id="t"/><path d="M85-194c31 0 48 13 60 33l-1-100h32l1 261h-30c-2-10 0-23-3-31C134-8 116 4 85 4 32 4 16-35 15-94c0-66 23-100 70-100zm9 24c-40 0-46 34-46 75 0 40 6 74 45 74 42 0 51-32 51-76 0-42-9-74-50-73" id="u"/><path d="M84 4C-5 8 30-112 23-190h32v120c0 31 7 50 39 49 72-2 45-101 50-169h31l1 190h-30c-1-10 1-25-2-33-11 22-28 36-60 37" id="v"/><path d="M96-169c-40 0-48 33-48 73s9 75 48 75c24 0 41-14 43-38l32 2c-6 37-31 61-74 61-59 0-76-41-82-99-10-93 101-131 147-64 4 7 5 14 7 22l-32 3c-4-21-16-35-41-35" id="w"/><g id="b"><use transform="matrix(0.05,0,0,0.05,0,0)" xlink:href="#r"/><use transform="matrix(0.05,0,0,0.05,12,0)" xlink:href="#s"/><use transform="matrix(0.05,0,0,0.05,17.95,0)" xlink:href="#t"/><use transform="matrix(0.05,0,0,0.05,27.950000000000003,0)" xlink:href="#u"/><use transform="matrix(0.05,0,0,0.05,37.95,0)" xlink:href="#v"/><use transform="matrix(0.05,0,0,0.05,47.95,0)" xlink:href="#w"/><use transform="matrix(0.05,0,0,0.05,56.95,0)" xlink:href="#o"/><use transform="matrix(0.05,0,0,0.05,61.95,0)" xlink:href="#n"/><use transform="matrix(0.05,0,0,0.05,65.9,0)" xlink:href="#t"/><use transform="matrix(0.05,0,0,0.05,75.9,0)" xlink:href="#q"/></g><path d="M30 0v-248h187v28H63v79h144v27H63v87h162V0H30" id="x"/><path d="M108 0H70L1-190h34L89-25l56-165h34" id="y"/><path d="M210-169c-67 3-38 105-44 169h-31v-121c0-29-5-50-35-48C34-165 62-65 56 0H25l-1-190h30c1 10-1 24 2 32 10-44 99-50 107 0 11-21 27-35 58-36 85-2 47 119 55 194h-31v-121c0-29-5-49-35-48" id="z"/><path d="M100-194c63 0 86 42 84 106H49c0 40 14 67 53 68 26 1 43-12 49-29l28 8c-11 28-37 45-77 45C44 4 14-33 15-96c1-61 26-98 85-98zm52 81c6-60-76-77-97-28-3 7-6 17-6 28h103" id="A"/><g id="c"><use transform="matrix(0.05,0,0,0.05,0,0)" xlink:href="#x"/><use transform="matrix(0.05,0,0,0.05,12,0)" xlink:href="#q"/><use transform="matrix(0.05,0,0,0.05,22,0)" xlink:href="#y"/><use transform="matrix(0.05,0,0,0.05,31,0)" xlink:href="#n"/><use transform="matrix(0.05,0,0,0.05,34.95,0)" xlink:href="#s"/><use transform="matrix(0.05,0,0,0.05,40.900000000000006,0)" xlink:href="#t"/><use transform="matrix(0.05,0,0,0.05,50.900000000000006,0)" xlink:href="#q"/><use transform="matrix(0.05,0,0,0.05,60.900000000000006,0)" xlink:href="#z"/><use transform="matrix(0.05,0,0,0.05,75.85000000000001,0)" xlink:href="#A"/><use transform="matrix(0.05,0,0,0.05,85.85000000000001,0)" xlink:href="#q"/><use transform="matrix(0.05,0,0,0.05,95.85000000000001,0)" xlink:href="#o"/></g><path d="M30-248c118-7 216 8 213 122C240-48 200 0 122 0H30v-248zM63-27c89 8 146-16 146-99s-60-101-146-95v194" id="B"/><path d="M24 0v-261h32V0H24" id="C"/><path d="M115-194c55 1 70 41 70 98S169 2 115 4C84 4 66-9 55-30l1 105H24l-1-265h31l2 30c10-21 28-34 59-34zm-8 174c40 0 45-34 45-75s-6-73-45-74c-42 0-51 32-51 76 0 43 10 73 51 73" id="D"/><g id="d"><use transform="matrix(0.05,0,0,0.05,0,0)" xlink:href="#B"/><use transform="matrix(0.05,0,0,0.05,12.950000000000001,0)" xlink:href="#A"/><use transform="matrix(0.05,0,0,0.05,22.950000000000003,0)" xlink:href="#y"/><use transform="matrix(0.05,0,0,0.05,31.950000000000003,0)" xlink:href="#A"/><use transform="matrix(0.05,0,0,0.05,41.95,0)" xlink:href="#C"/><use transform="matrix(0.05,0,0,0.05,45.900000000000006,0)" xlink:href="#t"/><use transform="matrix(0.05,0,0,0.05,55.900000000000006,0)" xlink:href="#D"/><use transform="matrix(0.05,0,0,0.05,65.9,0)" xlink:href="#z"/><use transform="matrix(0.05,0,0,0.05,80.85000000000001,0)" xlink:href="#A"/><use transform="matrix(0.05,0,0,0.05,90.85000000000001,0)" xlink:href="#q"/><use transform="matrix(0.05,0,0,0.05,100.85000000000001,0)" xlink:href="#o"/></g><path d="M185-189c-5-48-123-54-124 2 14 75 158 14 163 119 3 78-121 87-175 55-17-10-28-26-33-46l33-7c5 56 141 63 141-1 0-78-155-14-162-118-5-82 145-84 179-34 5 7 8 16 11 25" id="E"/><path d="M177-190C167-65 218 103 67 71c-23-6-38-20-44-43l32-5c15 47 100 32 89-28v-30C133-14 115 1 83 1 29 1 15-40 15-95c0-56 16-97 71-98 29-1 48 16 59 35 1-10 0-23 2-32h30zM94-22c36 0 50-32 50-73 0-42-14-75-50-75-39 0-46 34-46 75s6 73 46 73" id="F"/><g id="e"><use transform="matrix(0.05,0,0,0.05,0,0)" xlink:href="#E"/><use transform="matrix(0.05,0,0,0.05,12,0)" xlink:href="#o"/><use transform="matrix(0.05,0,0,0.05,17,0)" xlink:href="#p"/><use transform="matrix(0.05,0,0,0.05,27,0)" xlink:href="#F"/><use transform="matrix(0.05,0,0,0.05,37,0)" xlink:href="#n"/><use transform="matrix(0.05,0,0,0.05,40.95,0)" xlink:href="#q"/><use transform="matrix(0.05,0,0,0.05,50.95,0)" xlink:href="#F"/></g><path d="M137 0h-34L2-248h35l83 218 83-218h36" id="G"/><path d="M212-179c-10-28-35-45-73-45-59 0-87 40-87 99 0 60 29 101 89 101 43 0 62-24 78-52l27 14C228-24 195 4 139 4 59 4 22-46 18-125c-6-104 99-153 187-111 19 9 31 26 39 46" id="H"/><g id="f"><use transform="matrix(0.05,0,0,0.05,0,0)" xlink:href="#G"/><use transform="matrix(0.05,0,0,0.05,12,0)" xlink:href="#r"/><use transform="matrix(0.05,0,0,0.05,24,0)" xlink:href="#H"/></g><g id="g"><use transform="matrix(0.05,0,0,0.05,0,0)" xlink:href="#r"/><use transform="matrix(0.05,0,0,0.05,12,0)" xlink:href="#A"/><use transform="matrix(0.05,0,0,0.05,22,0)" xlink:href="#A"/><use transform="matrix(0.05,0,0,0.05,32,0)" xlink:href="#s"/><use transform="matrix(0.05,0,0,0.05,37.95,0)" xlink:href="#n"/><use transform="matrix(0.05,0,0,0.05,41.900000000000006,0)" xlink:href="#q"/><use transform="matrix(0.05,0,0,0.05,51.900000000000006,0)" xlink:href="#F"/></g><path d="M140-251c81 0 123 46 123 126C263-46 219 4 140 4 59 4 17-45 17-125s42-126 123-126zm0 227c63 0 89-41 89-101s-29-99-89-99c-61 0-89 39-89 99S79-25 140-24" id="I"/><path d="M16-82v-28h88v28H16" id="J"/><g id="h"><use transform="matrix(0.05,0,0,0.05,0,0)" xlink:href="#I"/><use transform="matrix(0.05,0,0,0.05,14,0)" xlink:href="#q"/><use transform="matrix(0.05,0,0,0.05,24,0)" xlink:href="#J"/><use transform="matrix(0.05,0,0,0.05,29.950000000000003,0)" xlink:href="#r"/><use transform="matrix(0.05,0,0,0.05,41.95,0)" xlink:href="#s"/><use transform="matrix(0.05,0,0,0.05,47.900000000000006,0)" xlink:href="#A"/><use transform="matrix(0.05,0,0,0.05,57.900000000000006,0)" xlink:href="#z"/></g><path d="M190 0L58-211 59 0H30v-248h39L202-35l-2-213h31V0h-41" id="K"/><g id="i"><use transform="matrix(0.05,0,0,0.05,0,0)" xlink:href="#G"/><use transform="matrix(0.05,0,0,0.05,12,0)" xlink:href="#r"/><use transform="matrix(0.05,0,0,0.05,24,0)" xlink:href="#K"/></g><g id="j"><use transform="matrix(0.05,0,0,0.05,0,0)" xlink:href="#m"/><use transform="matrix(0.05,0,0,0.05,10.3,0)" xlink:href="#n"/><use transform="matrix(0.05,0,0,0.05,14.25,0)" xlink:href="#o"/><use transform="matrix(0.05,0,0,0.05,19.25,0)" xlink:href="#p"/><use transform="matrix(0.05,0,0,0.05,29.25,0)" xlink:href="#q"/></g><path d="M197 0v-115H63V0H30v-248h33v105h134v-105h34V0h-34" id="L"/><path d="M115-194c53 0 69 39 70 98 0 66-23 100-70 100C84 3 66-7 56-30L54 0H23l1-261h32v101c10-23 28-34 59-34zm-8 174c40 0 45-34 45-75 0-40-5-75-45-74-42 0-51 32-51 76 0 43 10 73 51 73" id="M"/><g id="k"><use transform="matrix(0.05,0,0,0.05,0,0)" xlink:href="#L"/><use transform="matrix(0.05,0,0,0.05,12.950000000000001,0)" xlink:href="#v"/><use transform="matrix(0.05,0,0,0.05,22.950000000000003,0)" xlink:href="#M"/></g><path d="M206 0h-36l-40-164L89 0H53L-1-190h32L70-26l43-164h34l41 164 42-164h31" id="N"/><path d="M143 0L79-87 56-68V0H24v-261h32v163l83-92h37l-77 82L181 0h-38" id="O"/><g id="l"><use transform="matrix(0.05,0,0,0.05,0,0)" xlink:href="#K"/><use transform="matrix(0.05,0,0,0.05,12.950000000000001,0)" xlink:href="#A"/><use transform="matrix(0.05,0,0,0.05,22.950000000000003,0)" xlink:href="#o"/><use transform="matrix(0.05,0,0,0.05,27.950000000000003,0)" xlink:href="#N"/><use transform="matrix(0.05,0,0,0.05,40.900000000000006,0)" xlink:href="#t"/><use transform="matrix(0.05,0,0,0.05,50.900000000000006,0)" xlink:href="#s"/><use transform="matrix(0.05,0,0,0.05,56.85,0)" xlink:href="#O"/></g></defs></g></svg>