<?xml version="1.0" standalone="no"?>
<!DOCTYPE svg PUBLIC "-//W3C//DTD SVG 1.1//EN"
  "http://www.w3.org/Graphics/SVG/1.1/DTD/svg11.dtd">
<svg version="1.1" xmlns="http://www.w3.org/2000/svg" width="3840" height="2160" viewBox="-1288 -1123 3024 1701" id="ccdiagram"><defs><style type="text/css">@import url(&#x27;https://fonts.googleapis.com/css?family=Open+Sans:400,700&#x27;);</style></defs><g><g style="pointer-events:none"><g><pattern id="gridPatternMinor" x="0" y="37" width="128" height="74" patternUnits="userSpaceOnUse"><path d="M 0 0 L 128 74" stroke="#eee" stroke-width="1"></path><path d="M 128 0 L 0 74" stroke="#eee" stroke-width="1"></path></pattern><polygon points="224 -1997, 3207 -273, 224 1452, -2759 -273" fill="url(#gridPatternMinor)"></polygon></g></g><g pointer-events=""><g opacity="1"><g><g><polygon points="544 -1084, 1440 -566, 1440 -529, -32 322, -96 322, -992 -196, -992 -233, 480 -1084" fill="#000000" opacity="0.2"></polygon><polygon points="544 -1091, 1440 -573, 1440 -536, -32 315, -96 315, -992 -203, -992 -240, 480 -1091" fill="#607d8b" stroke-width="2" stroke="#818181"></polygon><polygon points="512 -1073, 1408 -555, -64 296, -960 -222" fill="#e6e7e8" stroke-width="0" stroke="#818181"></polygon></g></g></g><g opacity="1"><g><g><polygon points="-608 -344, 96 63, 96 100, -96 211, -160 211, -864 -196, -864 -233, -672 -344" fill="#000000" opacity="0.2"></polygon><polygon points="-608 -351, 96 56, 96 93, -96 204, -160 204, -864 -203, -864 -240, -672 -351" fill="#8bc34a" stroke-width="2" stroke="#818181"></polygon><polygon points="-640 -333, 64 74, -128 185, -832 -222" fill="#e6e7e8" stroke-width="0" stroke="#818181"></polygon></g></g></g><g opacity="1"><g><g><polygon points="-320 -511, 384 -104, 384 -67, 192 44, 128 44, -576 -363, -576 -400, -384 -511" fill="#000000" opacity="0.2"></polygon><polygon points="-320 -518, 384 -111, 384 -74, 192 37, 128 37, -576 -370, -576 -407, -384 -518" fill="#8bc34a" stroke-width="2" stroke="#818181"></polygon><polygon points="-352 -499, 352 -92, 160 19, -544 -388" fill="#e6e7e8" stroke-width="0" stroke="#818181"></polygon></g></g></g><g opacity="1"><g><g><polygon points="-32 -677, 672 -270, 672 -233, 480 -122, 416 -122, -288 -529, -288 -566, -96 -677" fill="#000000" opacity="0.2"></polygon><polygon points="-32 -684, 672 -277, 672 -240, 480 -129, 416 -129, -288 -536, -288 -573, -96 -684" fill="#8bc34a" stroke-width="2" stroke="#818181"></polygon><polygon points="-64 -666, 640 -259, 448 -148, -256 -555" fill="#e6e7e8" stroke-width="0" stroke="#818181"></polygon></g></g></g><g opacity="1"><g><g><polygon points="256 -844, 960 -437, 960 -400, 768 -289, 704 -289, 0 -696, 0 -733, 192 -844" fill="#000000" opacity="0.2"></polygon><polygon points="256 -851, 960 -444, 960 -407, 768 -296, 704 -296, 0 -703, 0 -740, 192 -851" fill="#8bc34a" stroke-width="2" stroke="#818181"></polygon><polygon points="224 -832, 928 -425, 736 -314, 32 -721" fill="#e6e7e8" stroke-width="0" stroke="#818181"></polygon></g></g></g><g opacity="1"><g><g><polygon points="544 -1010, 1248 -603, 1248 -566, 1056 -455, 992 -455, 288 -862, 288 -899, 480 -1010" fill="#000000" opacity="0.2"></polygon><polygon points="544 -1017, 1248 -610, 1248 -573, 1056 -462, 992 -462, 288 -869, 288 -906, 480 -1017" fill="#8bc34a" stroke-width="2" stroke="#818181"></polygon><polygon points="512 -999, 1216 -592, 1024 -481, 320 -888" fill="#e6e7e8" stroke-width="0" stroke="#818181"></polygon></g></g></g><g opacity="1"><g id="763b6988-b9c1-4200-ab6e-1ce4d6968a3f"><svg x="993" y="-698" overflow="visible" style="user-select:none"><g fill="#ffc107"><polygon points="0 0, 152 88, -1120 823, -1272 735" stroke="#ffc107" stroke-width="40"></polygon></g></svg></g></g><g opacity="1"><g id="09396795-725d-443c-871a-7f381d21a29f"><svg x="768" y="-828" overflow="visible" style="user-select:none"><g fill="#ffc107"><polygon points="0 0, 152 88, -1119 823, -1272 735" stroke="#ffc107" stroke-width="40"></polygon></g></svg></g></g><g opacity="1"><g id="cf00098f-f475-4578-ba6c-f9d85725708a"><svg x="544" y="-958" overflow="visible" style="user-select:none"><g fill="#ffc107"><polygon points="0 0, 152 88, -1120 824, -1272 736" stroke="#ffc107" stroke-width="40"></polygon></g></svg></g></g><g opacity="1"><g><g><polygon points="-576 -289, -448 -215, -448 -178, -544 -122, -608 -122, -736 -196, -736 -233, -640 -289" fill="#000000" opacity="0.2"></polygon><polygon points="-576 -296, -448 -222, -448 -185, -544 -129, -608 -129, -736 -203, -736 -240, -640 -296" fill="#03a9f4" stroke-width="2" stroke="#818181"></polygon><polygon points="-608 -277, -480 -203, -576 -148, -704 -222" fill="#e6e7e8" stroke-width="0" stroke="#818181"></polygon></g></g></g><g opacity="1"><g><g><polygon points="-352 -159, -301 -129, -224 -85, -224 -48, -320 7, -384 7, -512 -67, -512 -104, -416 -159" fill="#000000" opacity="0.2"></polygon><polygon points="-352 -166, -301 -136, -224 -93, -224 -55, -320 0, -384 0, -512 -74, -512 -111, -416 -166" fill="#03a9f4" stroke-width="2" stroke="#818181"></polygon><polygon points="-384 -148, -333 -118, -256 -74, -352 -18, -480 -92" fill="#e6e7e8" stroke-width="0" stroke="#818181"></polygon></g></g></g><g opacity="1"><g><g><polygon points="-128 -29, -77 1, 0 44, 0 81, -96 137, -160 137, -288 63, -288 26, -192 -30" fill="#000000" opacity="0.2"></polygon><polygon points="-128 -37, -77 -7, 0 37, 0 74, -96 130, -160 130, -288 56, -288 19, -192 -37" fill="#03a9f4" stroke-width="2" stroke="#818181"></polygon><polygon points="-160 -18, -109 12, -32 56, -128 111, -256 37" fill="#e6e7e8" stroke-width="0" stroke="#818181"></polygon></g></g></g><g opacity="1"><g><g><polygon points="160 -196, 211 -166, 288 -122, 288 -85, 192 -30, 128 -30, 0 -104, 0 -141, 96 -196" fill="#000000" opacity="0.2"></polygon><polygon points="160 -203, 211 -173, 288 -130, 288 -92, 192 -37, 128 -37, 0 -111, 0 -148, 96 -203" fill="#03a9f4" stroke-width="2" stroke="#818181"></polygon><polygon points="128 -185, 179 -155, 256 -111, 160 -55, 32 -129" fill="#e6e7e8" stroke-width="0" stroke="#818181"></polygon></g></g></g><g opacity="1"><g><g><polygon points="-64 -325, -13 -295, 64 -252, 64 -215, -32 -159, -96 -159, -224 -233, -224 -270, -128 -326" fill="#000000" opacity="0.2"></polygon><polygon points="-64 -333, -13 -303, 64 -259, 64 -222, -32 -166, -96 -166, -224 -240, -224 -277, -128 -333" fill="#03a9f4" stroke-width="2" stroke="#818181"></polygon><polygon points="-96 -314, -45 -284, 32 -240, -64 -185, -192 -259" fill="#e6e7e8" stroke-width="0" stroke="#818181"></polygon></g></g></g><g opacity="1"><g><g><polygon points="-288 -455, -237 -425, -160 -381, -160 -344, -256 -289, -320 -289, -448 -363, -448 -400, -352 -455" fill="#000000" opacity="0.2"></polygon><polygon points="-288 -462, -237 -432, -160 -389, -160 -351, -256 -296, -320 -296, -448 -370, -448 -407, -352 -462" fill="#03a9f4" stroke-width="2" stroke="#818181"></polygon><polygon points="-320 -444, -269 -414, -192 -370, -288 -314, -416 -388" fill="#e6e7e8" stroke-width="0" stroke="#818181"></polygon></g></g></g><g opacity="1"><g><g><polygon points="448 -362, 499 -332, 576 -289, 576 -252, 480 -196, 416 -196, 288 -270, 288 -307, 384 -363" fill="#000000" opacity="0.2"></polygon><polygon points="448 -370, 499 -340, 576 -296, 576 -259, 480 -203, 416 -203, 288 -277, 288 -314, 384 -370" fill="#03a9f4" stroke-width="2" stroke="#818181"></polygon><polygon points="416 -351, 467 -321, 544 -277, 448 -222, 320 -296" fill="#e6e7e8" stroke-width="0" stroke="#818181"></polygon></g></g></g><g opacity="1"><g><g><polygon points="224 -492, 275 -462, 352 -418, 352 -381, 256 -326, 192 -326, 64 -400, 64 -437, 160 -492" fill="#000000" opacity="0.2"></polygon><polygon points="224 -499, 275 -469, 352 -426, 352 -388, 256 -333, 192 -333, 64 -407, 64 -444, 160 -499" fill="#03a9f4" stroke-width="2" stroke="#818181"></polygon><polygon points="192 -481, 243 -451, 320 -407, 224 -351, 96 -425" fill="#e6e7e8" stroke-width="0" stroke="#818181"></polygon></g></g></g><g opacity="1"><g><g><polygon points="0 -621, 51 -591, 128 -548, 128 -511, 32 -455, -32 -455, -160 -529, -160 -566, -64 -622" fill="#000000" opacity="0.2"></polygon><polygon points="0 -629, 51 -599, 128 -555, 128 -518, 32 -462, -32 -462, -160 -536, -160 -573, -64 -629" fill="#03a9f4" stroke-width="2" stroke="#818181"></polygon><polygon points="-32 -610, 19 -580, 96 -536, 0 -481, -128 -555" fill="#e6e7e8" stroke-width="0" stroke="#818181"></polygon></g></g></g><g opacity="1"><g><g><polygon points="736 -529, 787 -499, 864 -455, 864 -418, 768 -363, 704 -363, 576 -437, 576 -474, 672 -529" fill="#000000" opacity="0.2"></polygon><polygon points="736 -536, 787 -506, 864 -463, 864 -425, 768 -370, 704 -370, 576 -444, 576 -481, 672 -536" fill="#03a9f4" stroke-width="2" stroke="#818181"></polygon><polygon points="704 -518, 755 -488, 832 -444, 736 -388, 608 -462" fill="#e6e7e8" stroke-width="0" stroke="#818181"></polygon></g></g></g><g opacity="1"><g><g><polygon points="512 -658, 563 -628, 640 -585, 640 -548, 544 -492, 480 -492, 352 -566, 352 -603, 448 -659" fill="#000000" opacity="0.2"></polygon><polygon points="512 -666, 563 -636, 640 -592, 640 -555, 544 -499, 480 -499, 352 -573, 352 -610, 448 -666" fill="#03a9f4" stroke-width="2" stroke="#818181"></polygon><polygon points="480 -647, 531 -617, 608 -573, 512 -518, 384 -592" fill="#e6e7e8" stroke-width="0" stroke="#818181"></polygon></g></g></g><g opacity="1"><g><g><polygon points="288 -788, 339 -758, 416 -714, 416 -677, 320 -622, 256 -622, 128 -696, 128 -733, 224 -788" fill="#000000" opacity="0.2"></polygon><polygon points="288 -795, 339 -765, 416 -722, 416 -684, 320 -629, 256 -629, 128 -703, 128 -740, 224 -795" fill="#03a9f4" stroke-width="2" stroke="#818181"></polygon><polygon points="256 -777, 307 -747, 384 -703, 288 -647, 160 -721" fill="#e6e7e8" stroke-width="0" stroke="#818181"></polygon></g></g></g><g opacity="1"><g><g><polygon points="800 -825, 851 -795, 928 -751, 928 -714, 832 -659, 768 -659, 640 -733, 640 -770, 736 -825" fill="#000000" opacity="0.2"></polygon><polygon points="800 -832, 851 -802, 928 -759, 928 -721, 832 -666, 768 -666, 640 -740, 640 -777, 736 -832" fill="#03a9f4" stroke-width="2" stroke="#818181"></polygon><polygon points="768 -814, 819 -784, 896 -740, 800 -684, 672 -758" fill="#e6e7e8" stroke-width="0" stroke="#818181"></polygon></g></g></g><g opacity="1"><g><g><polygon points="1024 -695, 1075 -665, 1152 -622, 1152 -585, 1056 -529, 992 -529, 864 -603, 864 -640, 960 -696" fill="#000000" opacity="0.2"></polygon><polygon points="1024 -703, 1075 -673, 1152 -629, 1152 -592, 1056 -536, 992 -536, 864 -610, 864 -647, 960 -703" fill="#03a9f4" stroke-width="2" stroke="#818181"></polygon><polygon points="992 -684, 1043 -654, 1120 -610, 1024 -555, 896 -629" fill="#e6e7e8" stroke-width="0" stroke="#818181"></polygon></g></g></g><g opacity="1"><g><g><polygon points="576 -954, 627 -924, 704 -881, 704 -844, 608 -788, 544 -788, 416 -862, 416 -899, 512 -955" fill="#000000" opacity="0.2"></polygon><polygon points="576 -962, 627 -932, 704 -888, 704 -851, 608 -795, 544 -795, 416 -869, 416 -906, 512 -962" fill="#03a9f4" stroke-width="2" stroke="#818181"></polygon><polygon points="544 -943, 595 -913, 672 -869, 576 -814, 448 -888" fill="#e6e7e8" stroke-width="0" stroke="#818181"></polygon></g></g></g><g opacity="1"><g><g><polygon points="800 137, 928 211, 928 248, 800 322, 736 322, 608 248, 608 211, 736 137" fill="#000000" opacity="0.2"></polygon><polygon points="800 130, 928 204, 928 241, 800 315, 736 315, 608 241, 608 204, 736 130" fill="#8bc34a" stroke-width="2" stroke="#818181"></polygon><polygon points="768 148, 896 222, 768 296, 640 222" fill="#e6e7e8" stroke-width="0" stroke="#818181"></polygon></g></g></g><g opacity="1"><g id="76d02a58-ced6-429f-a371-fe66d1de25b9"><svg x="1279" y="-125" overflow="visible" style="user-select:none"><g fill="#ffc107"><polygon points="0 0, 88 51, 1 102, -88 51" stroke="#ffc107" stroke-width="40"></polygon></g></svg></g></g><g opacity="1"><g><g><polygon points="1056 -11, 1184 63, 1184 100, 1056 174, 992 174, 864 100, 864 63, 992 -11" fill="#000000" opacity="0.2"></polygon><polygon points="1056 -18, 1184 56, 1184 93, 1056 167, 992 167, 864 93, 864 56, 992 -18" fill="#03a9f4" stroke-width="2" stroke="#818181"></polygon><polygon points="1024 0, 1152 74, 1024 148, 896 74" fill="#e6e7e8" stroke-width="0" stroke="#818181"></polygon></g></g></g><g opacity="1"><g><g><polygon points="544 285, 672 359, 672 396, 544 470, 480 470, 352 396, 352 359, 480 285" fill="#000000" opacity="0.2"></polygon><polygon points="544 278, 672 352, 672 389, 544 463, 480 463, 352 389, 352 352, 480 278" fill="#607d8b" stroke-width="2" stroke="#818181"></polygon><polygon points="512 296, 640 370, 512 444, 384 370" fill="#e6e7e8" stroke-width="0" stroke="#818181"></polygon></g></g></g></g><g style="pointer-events:none"><g><pattern id="gridPatternMajor" x="0" y="37" width="128" height="74" patternUnits="userSpaceOnUse"><path d="M 64 0 L 128 37 64 74 0 37 z" stroke="#54626f" stroke-width="1" fill="none"></path></pattern><polygon points="224 -1997, 3207 -273, 224 1452, -2759 -273" fill="url(#gridPatternMajor)"></polygon></g></g><g pointer-events=""></g><g pointer-events="none"></g><g pointer-events=""><g><g cursor="cell"><line x1="-828" y1="182" x2="-738" y2="-122" stroke="red" stroke-width="8" opacity="0"></line><line x1="-828" y1="182" x2="-738" y2="-122" stroke="#000000" stroke-width="2" stroke-linecap="round"></line><polygon points="-736 -129, -751 -117, -739 -119, -729 -114, -736 -129" stroke-linejoin="round" fill="#000000" stroke="#000000" stroke-width="1"></polygon></g></g><g><g cursor="cell"><line x1="-828" y1="182" x2="-301" y2="131" stroke="red" stroke-width="8" opacity="0"></line><line x1="-828" y1="182" x2="-301" y2="131" stroke="#000000" stroke-width="2" stroke-linecap="round"></line><polygon points="-288 130, -314 125, -305 131, -310 138, -288 130" stroke-linejoin="round" fill="#000000" stroke="#000000" stroke-width="1"></polygon></g></g><g><g cursor="cell"><line x1="-828" y1="182" x2="-522" y2="6" stroke="red" stroke-width="8" opacity="0"></line><line x1="-828" y1="182" x2="-522" y2="6" stroke="#000000" stroke-width="2" stroke-linecap="round"></line><polygon points="-512 0, -538 5, -524 7, -521 15, -512 0" stroke-linejoin="round" fill="#000000" stroke="#000000" stroke-width="1"></polygon></g></g></g><g pointer-events=""><g opacity="1"><g id="63ab2a1e-291c-4bf3-a8ed-7b40ec4644f8" transform="translate(0 0)"><svg x="-888" y="117" height="95.068" width="63" viewBox="0 0 16.669 25.153"><path d="M16.668 22.903q0 1.64-.864 2.091-.865.451-2.297-.376L3.161 18.645q-1.433-.827-2.297-2.276Q.001 14.921 0 13.28q0-.723.042-1.39.042-.666.166-1.394.124-.727.313-1.302.19-.575.51-1.039.319-.464.733-.683.414-.22 1.012-.147.598.073 1.32.49.107.06.497.58.391.52.882 1.165.491.646 1.279 1.394.788.75 1.58 1.207.793.458 1.58.618.788.161 1.28.083.49-.079.881-.147.39-.069.497-.007.722.416 1.32 1.035.598.619 1.013 1.315.414.697.734 1.531t.509 1.627q.19.793.313 1.664.124.872.166 1.586.042.713.042 1.438zM12.88 8.51q0 2.173-1.332 2.942-1.332.769-3.214-.318-1.882-1.086-3.214-3.393Q3.79 5.434 3.79 3.26q0-2.173 1.331-2.942 1.332-.77 3.214.317t3.214 3.394q1.332 2.306 1.332 4.48z" fill="#000000"></path></svg></g></g></g><g pointer-events=""></g><g pointer-events=""></g><g pointer-events=""><g opacity="1"><g id="2f6e3ece-5232-47bc-8cc9-6794793d4cd5" transform="translate(0 0)"><svg x="-736" y="-203" overflow="visible" style="user-select:none"><text stroke="#ffffff" stroke-width="4" font-family="Open Sans" y="36.5" font-size="25pt" fill="#ff9800" font-weight="bold" transform="matrix(0.707 0.409 -0.707 0.409 0 0)" xml:space="preserve"><tspan x="8" dy="0">us-east-1a</tspan></text><text font-family="Open Sans" y="36.5" font-size="25pt" fill="#ff9800" font-weight="bold" transform="matrix(0.707 0.409 -0.707 0.409 0 0)" xml:space="preserve"><tspan x="8" dy="0">us-east-1a</tspan></text></svg></g></g><g opacity="1"><g id="81a4e95d-2615-474f-88e1-1b1b4fdfe701" transform="translate(0 0)"><svg x="-512" y="-74" overflow="visible" style="user-select:none"><text stroke="#ffffff" stroke-width="4" font-family="Open Sans" y="36.5" font-size="25pt" fill="#ff9800" font-weight="bold" transform="matrix(0.707 0.409 -0.707 0.409 0 0)" xml:space="preserve"><tspan x="8" dy="0">us-east-1b</tspan><tspan x="8" dy="1.1em"></tspan></text><text font-family="Open Sans" y="36.5" font-size="25pt" fill="#ff9800" font-weight="bold" transform="matrix(0.707 0.409 -0.707 0.409 0 0)" xml:space="preserve"><tspan x="8" dy="0">us-east-1b</tspan><tspan x="8" dy="1.1em"></tspan></text></svg></g></g><g opacity="1"><g id="893fc6a0-5375-4145-8428-ed9100d676f5" transform="translate(0 0)"><svg x="-288" y="56" overflow="visible" style="user-select:none"><text stroke="#ffffff" stroke-width="4" font-family="Open Sans" y="36.5" font-size="25pt" fill="#ff9800" font-weight="bold" transform="matrix(0.707 0.409 -0.707 0.409 0 0)" xml:space="preserve"><tspan x="8" dy="0">us-east-1c</tspan></text><text font-family="Open Sans" y="36.5" font-size="25pt" fill="#ff9800" font-weight="bold" transform="matrix(0.707 0.409 -0.707 0.409 0 0)" xml:space="preserve"><tspan x="8" dy="0">us-east-1c</tspan></text></svg></g></g><g opacity="1"><g id="0c7bb190-5683-461b-a9b0-672831dde431"><svg x="-888" y="181" overflow="visible" style="user-select:none"><text stroke="#ffffff" stroke-width="4" font-family="Open Sans" y="36.5" font-size="25pt" fill="#ff9800" font-weight="bold" transform="matrix(0.707 0.409 -0.707 0.409 0 0)" xml:space="preserve"><tspan x="8" dy="0">WAN</tspan></text><text font-family="Open Sans" y="36.5" font-size="25pt" fill="#ff9800" font-weight="bold" transform="matrix(0.707 0.409 -0.707 0.409 0 0)" xml:space="preserve"><tspan x="8" dy="0">WAN</tspan></text></svg></g></g><g opacity="1"><g id="9321bf91-c5fc-476f-9b23-92e747ab3c28" transform="translate(0 0)"><svg x="-48" y="194" overflow="visible" style="user-select:none"><text stroke="#ffffff" stroke-width="4" font-family="Open Sans" y="36.5" font-size="25pt" fill="#4caf50" font-weight="bold" transform="matrix(0.707 -0.409 0.707 0.409 0 0)" xml:space="preserve"><tspan x="8" dy="0">DMZ Layer</tspan></text><text font-family="Open Sans" y="36.5" font-size="25pt" fill="#4caf50" font-weight="bold" transform="matrix(0.707 -0.409 0.707 0.409 0 0)" xml:space="preserve"><tspan x="8" dy="0">DMZ Layer</tspan></text></svg></g></g><g opacity="1"><g id="458b78a0-0d7f-4f17-b696-8401f14a932e" transform="translate(0 0)"><svg x="256" y="19" overflow="visible" style="user-select:none"><text stroke="#ffffff" stroke-width="4" font-family="Open Sans" y="36.5" font-size="25pt" fill="#4caf50" font-weight="bold" transform="matrix(0.707 -0.409 0.707 0.409 0 0)" xml:space="preserve"><tspan x="8" dy="0">Routing</tspan><tspan x="8" dy="1.1em">Layer</tspan></text><text font-family="Open Sans" y="36.5" font-size="25pt" fill="#4caf50" font-weight="bold" transform="matrix(0.707 -0.409 0.707 0.409 0 0)" xml:space="preserve"><tspan x="8" dy="0">Routing</tspan><tspan x="8" dy="1.1em">Layer</tspan></text></svg></g></g><g opacity="1"><g id="2b6daccb-f500-4ec4-9995-bec528405c82" transform="translate(0 0)"><svg x="528" y="-139" overflow="visible" style="user-select:none"><text stroke="#ffffff" stroke-width="4" font-family="Open Sans" y="36.5" font-size="25pt" fill="#4caf50" font-weight="bold" transform="matrix(0.707 -0.409 0.707 0.409 0 0)" xml:space="preserve"><tspan x="8" dy="0">Services</tspan><tspan x="8" dy="1.1em">Layer</tspan></text><text font-family="Open Sans" y="36.5" font-size="25pt" fill="#4caf50" font-weight="bold" transform="matrix(0.707 -0.409 0.707 0.409 0 0)" xml:space="preserve"><tspan x="8" dy="0">Services</tspan><tspan x="8" dy="1.1em">Layer</tspan></text></svg></g></g><g opacity="1"><g id="504f1103-6986-49e0-80f5-da62a694e519" transform="translate(0 0)"><svg x="848" y="-324" overflow="visible" style="user-select:none"><text stroke="#ffffff" stroke-width="4" font-family="Open Sans" y="36.5" font-size="25pt" fill="#4caf50" font-weight="bold" transform="matrix(0.707 -0.409 0.707 0.409 0 0)" xml:space="preserve"><tspan x="8" dy="0">Data</tspan><tspan x="8" dy="1.1em">Layer</tspan></text><text font-family="Open Sans" y="36.5" font-size="25pt" fill="#4caf50" font-weight="bold" transform="matrix(0.707 -0.409 0.707 0.409 0 0)" xml:space="preserve"><tspan x="8" dy="0">Data</tspan><tspan x="8" dy="1.1em">Layer</tspan></text></svg></g></g><g opacity="1"><g id="6be4605c-9e5d-4fc1-8500-caba05efc15b" transform="translate(0 0)"><svg x="1136" y="-490" overflow="visible" style="user-select:none"><text stroke="#ffffff" stroke-width="4" font-family="Open Sans" y="36.5" font-size="25pt" fill="#4caf50" font-weight="bold" transform="matrix(0.707 -0.409 0.707 0.409 0 0)" xml:space="preserve"><tspan x="8" dy="0">Admin</tspan><tspan x="8" dy="1.1em">Layer</tspan></text><text font-family="Open Sans" y="36.5" font-size="25pt" fill="#4caf50" font-weight="bold" transform="matrix(0.707 -0.409 0.707 0.409 0 0)" xml:space="preserve"><tspan x="8" dy="0">Admin</tspan><tspan x="8" dy="1.1em">Layer</tspan></text></svg></g></g><g opacity="1"><g id="53743177-efad-43b6-905b-ab480b7b29ed" transform="translate(0 0)"><svg x="864" y="93" overflow="visible" style="user-select:none"><text stroke="#ffffff" stroke-width="4" font-family="Open Sans" y="46.76" font-size="34pt" fill="#4286c5" font-weight="bold" transform="matrix(0.707 0.409 -0.707 0.409 0 0)" xml:space="preserve"><tspan x="8" dy="0">Subnet</tspan></text><text font-family="Open Sans" y="46.76" font-size="34pt" fill="#4286c5" font-weight="bold" transform="matrix(0.707 0.409 -0.707 0.409 0 0)" xml:space="preserve"><tspan x="8" dy="0">Subnet</tspan></text></svg></g></g><g opacity="1"><g id="f5f71e1c-b8e5-4b24-90d3-433edb199d7d" transform="translate(0 0)"><svg x="624" y="250" overflow="visible" style="user-select:none"><text stroke="#ffffff" stroke-width="4" font-family="Open Sans" y="46.76" font-size="34pt" fill="#4caf50" font-weight="bold" transform="matrix(0.707 0.409 -0.707 0.409 0 0)" xml:space="preserve"><tspan x="8" dy="0">Layer</tspan></text><text font-family="Open Sans" y="46.76" font-size="34pt" fill="#4caf50" font-weight="bold" transform="matrix(0.707 0.409 -0.707 0.409 0 0)" xml:space="preserve"><tspan x="8" dy="0">Layer</tspan></text></svg></g></g><g opacity="1"><g id="d268994d-28de-47ac-868e-e6f3b92719e0" transform="translate(0 0)"><svg x="1168" y="-46" overflow="visible" style="user-select:none"><text stroke="#ffffff" stroke-width="4" font-family="Open Sans" y="46.76" font-size="34pt" fill="#ffc107" font-weight="bold" transform="matrix(0.707 0.409 -0.707 0.409 0 0)" xml:space="preserve"><tspan x="8" dy="0">AZ</tspan></text><text font-family="Open Sans" y="46.76" font-size="34pt" fill="#ffc107" font-weight="bold" transform="matrix(0.707 0.409 -0.707 0.409 0 0)" xml:space="preserve"><tspan x="8" dy="0">AZ</tspan></text></svg></g></g><g opacity="1"><g id="6ad53a18-92cd-4f11-9a25-adc3ebd13473" transform="translate(0 0)"><svg x="576" y="0" overflow="visible" style="user-select:none"><text stroke="#ffffff" stroke-width="4" font-family="Open Sans" y="59.3" font-size="45pt" fill="#607d8b" font-weight="bold" transform="matrix(0.707 -0.409 0.707 0.409 0 0)" xml:space="preserve"><tspan x="8" dy="0">Titan Network</tspan></text><text font-family="Open Sans" y="59.3" font-size="45pt" fill="#607d8b" font-weight="bold" transform="matrix(0.707 -0.409 0.707 0.409 0 0)" xml:space="preserve"><tspan x="8" dy="0">Titan Network</tspan></text></svg></g></g><g opacity="1"><g id="e91f2f68-561b-4806-836c-7976f38007bb" transform="translate(0 0)"><svg x="304" y="361" overflow="visible" style="user-select:none"><text stroke="#ffffff" stroke-width="4" font-family="Open Sans" y="46.76" font-size="34pt" fill="#607d8b" font-weight="bold" transform="matrix(0.707 0.409 -0.707 0.409 0 0)" xml:space="preserve"><tspan x="8" dy="0">Network (VPC)</tspan></text><text font-family="Open Sans" y="46.76" font-size="34pt" fill="#607d8b" font-weight="bold" transform="matrix(0.707 0.409 -0.707 0.409 0 0)" xml:space="preserve"><tspan x="8" dy="0">Network (VPC)</tspan></text></svg></g></g></g></g></svg>