<?xml version="1.0" standalone="no"?>
<!DOCTYPE svg PUBLIC "-//W3C//DTD SVG 1.1//EN"
  "http://www.w3.org/Graphics/SVG/1.1/DTD/svg11.dtd">
<svg version="1.1" xmlns="http://www.w3.org/2000/svg" width="3840" height="2160" viewBox="-688 -19.96875 1783 1002.9375" id="ccdiagram"><defs><style type="text/css">@import url(&#x27;https://fonts.googleapis.com/css?family=Open+Sans:400,700&#x27;);</style></defs><g><g style="pointer-events:none"><g><pattern id="gridPatternMinor" x="0" y="37" width="128" height="74" patternUnits="userSpaceOnUse"><path d="M 0 0 L 128 74" stroke="#eee" stroke-width="1"></path><path d="M 128 0 L 0 74" stroke="#eee" stroke-width="1"></path></pattern><polygon points="204 -535, 1962 482, 204 1499, -1555 482" fill="url(#gridPatternMinor)"></polygon></g></g><g pointer-events=""><g opacity="1"><g><g><polygon points="-160 26, 928 655, 928 692, 480 951, 416 951, -656 312, -656 276, -224 26" fill="#000000" opacity="0.2"></polygon><polygon points="-160 19, 928 648, 928 685, 480 944, 416 943, -656 305, -656 268, -224 19" fill="#8bc34a" stroke-width="2" stroke="#818181"></polygon><polygon points="-192 37, 896 666, 448 925, -624 287" fill="#e6e7e8" stroke-width="0" stroke="#818181"></polygon></g></g></g><g opacity="1"><g id="28d05c4f-61c5-4409-8a2f-8a730ef66e6f"><svg x="-193" y="60" overflow="visible" style="user-select:none"><g fill="#ffc107"><polygon points="0 0, 282 163, -61 361, -343 198" stroke="#ffc107" stroke-width="40"></polygon></g></svg></g></g><g opacity="1"><g><g><polygon points="-160 100, 32 211, 32 248, -160 359, -224 359, -416 248, -416 211, -224 100" fill="#000000" opacity="0.2"></polygon><polygon points="-160 93, 32 204, 32 241, -160 352, -224 352, -416 241, -416 204, -224 93" fill="#03a9f4" stroke-width="2" stroke="#818181"></polygon><polygon points="-192 111, 0 222, -192 333, -384 222" fill="#e6e7e8" stroke-width="0" stroke="#818181"></polygon></g></g></g><g opacity="1"><g id="cf1f5a1c-e40f-48dd-81b0-5f64ac8d6127"><svg x="190" y="282" overflow="visible" style="user-select:none"><g fill="#ffc107"><polygon points="0 0, 280 162, -63 360, -343 198" stroke="#ffc107" stroke-width="40"></polygon></g></svg></g></g><g opacity="1"><g id="f69e184e-f955-4566-ae28-5974e4516fee"><svg x="576" y="505" overflow="visible" style="user-select:none"><g fill="#ffc107"><polygon points="0 0, 280 162, -62 360, -342 198" stroke="#ffc107" stroke-width="40"></polygon></g></svg></g></g><g opacity="1"><g><g><polygon points="608 544, 800 655, 800 692, 608 803, 544 803, 352 692, 352 655, 544 544" fill="#000000" opacity="0.2"></polygon><polygon points="608 537, 800 648, 800 685, 608 796, 544 796, 352 685, 352 648, 544 537" fill="#03a9f4" stroke-width="2" stroke="#818181"></polygon><polygon points="576 555, 768 666, 576 777, 384 666" fill="#e6e7e8" stroke-width="0" stroke="#818181"></polygon></g></g></g><g opacity="1"><g><g><polygon points="224 322, 416 433, 416 470, 224 581, 160 581, -32 470, -32 433, 160 322" fill="#000000" opacity="0.2"></polygon><polygon points="224 315, 416 426, 416 463, 224 574, 160 574, -32 463, -32 426, 160 315" fill="#03a9f4" stroke-width="2" stroke="#818181"></polygon><polygon points="192 333, 384 444, 192 555, 0 444" fill="#e6e7e8" stroke-width="0" stroke="#818181"></polygon></g></g></g></g><g style="pointer-events:none"><g><pattern id="gridPatternMajor" x="0" y="37" width="128" height="74" patternUnits="userSpaceOnUse"><path d="M 64 0 L 128 37 64 74 0 37 z" stroke="#54626f" stroke-width="1" fill="none"></path></pattern><polygon points="204 -535, 1962 482, 204 1499, -1555 482" fill="url(#gridPatternMajor)"></polygon></g></g><g pointer-events=""></g><g pointer-events="none"></g><g pointer-events=""></g><g pointer-events=""></g><g pointer-events=""></g><g pointer-events=""></g><g pointer-events=""><g opacity="1"><g id="faa2c966-3305-4b42-8626-4c36ee504d1c" transform="translate(0 0)"><svg x="-480" y="315" overflow="visible" style="user-select:none"><text stroke="#ffffff" stroke-width="4" font-family="Open Sans" y="46.76" font-size="34pt" fill="#ff9800" font-weight="bold" transform="matrix(0.707 0.409 -0.707 0.409 0 0)" xml:space="preserve"><tspan x="8" dy="0">us-east-1a</tspan><tspan x="8" dy="1.1em"></tspan></text><text font-family="Open Sans" y="46.76" font-size="34pt" fill="#ff9800" font-weight="bold" transform="matrix(0.707 0.409 -0.707 0.409 0 0)" xml:space="preserve"><tspan x="8" dy="0">us-east-1a</tspan><tspan x="8" dy="1.1em"></tspan></text></svg></g></g><g opacity="1"><g id="820a22fb-67cc-4eab-a761-cb862f5c7ba2" transform="translate(0 0)"><svg x="-400" y="268" overflow="visible" style="user-select:none"><text stroke="#ffffff" stroke-width="4" font-family="Open Sans" y="46.76" font-size="34pt" fill="#03a9f4" font-weight="bold" transform="matrix(0.707 0.409 -0.707 0.409 0 0)" xml:space="preserve"><tspan x="8" dy="0">subnet-0</tspan></text><text font-family="Open Sans" y="46.76" font-size="34pt" fill="#03a9f4" font-weight="bold" transform="matrix(0.707 0.409 -0.707 0.409 0 0)" xml:space="preserve"><tspan x="8" dy="0">subnet-0</tspan></text></svg></g></g><g opacity="1"><g id="62f85e5b-4cd6-4cc6-9fea-19807cc0ae5f" transform="translate(0 0)"><svg x="-16" y="490" overflow="visible" style="user-select:none"><text stroke="#ffffff" stroke-width="4" font-family="Open Sans" y="46.76" font-size="34pt" fill="#03a9f4" font-weight="bold" transform="matrix(0.707 0.409 -0.707 0.409 0 0)" xml:space="preserve"><tspan x="8" dy="0">subnet-1</tspan></text><text font-family="Open Sans" y="46.76" font-size="34pt" fill="#03a9f4" font-weight="bold" transform="matrix(0.707 0.409 -0.707 0.409 0 0)" xml:space="preserve"><tspan x="8" dy="0">subnet-1</tspan></text></svg></g></g><g opacity="1"><g id="bda88844-936a-4807-a2e4-c0953ea9831d" transform="translate(0 0)"><svg x="368" y="712" overflow="visible" style="user-select:none"><text stroke="#ffffff" stroke-width="4" font-family="Open Sans" y="46.76" font-size="34pt" fill="#03a9f4" font-weight="bold" transform="matrix(0.707 0.409 -0.707 0.409 0 0)" xml:space="preserve"><tspan x="8" dy="0">subnet-2</tspan><tspan x="8" dy="1.1em"></tspan></text><text font-family="Open Sans" y="46.76" font-size="34pt" fill="#03a9f4" font-weight="bold" transform="matrix(0.707 0.409 -0.707 0.409 0 0)" xml:space="preserve"><tspan x="8" dy="0">subnet-2</tspan><tspan x="8" dy="1.1em"></tspan></text></svg></g></g><g opacity="1"><g id="adc284b0-d6dc-4258-9ab5-a385a1b44b09" transform="translate(0 0)"><svg x="-112" y="527" overflow="visible" style="user-select:none"><text stroke="#ffffff" stroke-width="4" font-family="Open Sans" y="46.76" font-size="34pt" fill="#ff9800" font-weight="bold" transform="matrix(0.707 0.409 -0.707 0.409 0 0)" xml:space="preserve"><tspan x="8" dy="0">us-east-1b</tspan><tspan x="8" dy="1.1em"></tspan></text><text font-family="Open Sans" y="46.76" font-size="34pt" fill="#ff9800" font-weight="bold" transform="matrix(0.707 0.409 -0.707 0.409 0 0)" xml:space="preserve"><tspan x="8" dy="0">us-east-1b</tspan><tspan x="8" dy="1.1em"></tspan></text></svg></g></g><g opacity="1"><g id="4443333d-794e-4055-aa57-941e6d9421ef" transform="translate(0 0)"><svg x="272" y="749" overflow="visible" style="user-select:none"><text stroke="#ffffff" stroke-width="4" font-family="Open Sans" y="46.76" font-size="34pt" fill="#ff9800" font-weight="bold" transform="matrix(0.707 0.409 -0.707 0.409 0 0)" xml:space="preserve"><tspan x="8" dy="0">us-east-1c</tspan><tspan x="8" dy="1.1em"></tspan></text><text font-family="Open Sans" y="46.76" font-size="34pt" fill="#ff9800" font-weight="bold" transform="matrix(0.707 0.409 -0.707 0.409 0 0)" xml:space="preserve"><tspan x="8" dy="0">us-east-1c</tspan><tspan x="8" dy="1.1em"></tspan></text></svg></g></g><g opacity="1"><g id="462d2514-8656-4d80-8eed-b8c4ca9e0ed4" transform="translate(0 0)"><svg x="608" y="888" overflow="visible" style="user-select:none"><text stroke="#ffffff" stroke-width="4" font-family="Open Sans" y="71.84" font-size="56pt" fill="#8bc34a" font-weight="bold" transform="matrix(0.707 -0.409 0.707 0.409 0 0)" xml:space="preserve"><tspan x="8" dy="0">Titan Layer</tspan></text><text font-family="Open Sans" y="71.84" font-size="56pt" fill="#8bc34a" font-weight="bold" transform="matrix(0.707 -0.409 0.707 0.409 0 0)" xml:space="preserve"><tspan x="8" dy="0">Titan Layer</tspan></text></svg></g></g></g></g></svg>