<?xml version="1.0" standalone="no"?>
<!DOCTYPE svg PUBLIC "-//W3C//DTD SVG 1.1//EN"
  "http://www.w3.org/Graphics/SVG/1.1/DTD/svg11.dtd">
<svg version="1.1" xmlns="http://www.w3.org/2000/svg" width="3840" height="2160" viewBox="-688 -19.4375 974 547.875" id="ccdiagram"><defs><style type="text/css">@import url(&#x27;https://fonts.googleapis.com/css?family=Open+Sans:400,700&#x27;);</style></defs><g><g style="pointer-events:none"><g><pattern id="gridPatternMinor" x="0" y="37" width="128" height="74" patternUnits="userSpaceOnUse"><path d="M 0 0 L 128 74" stroke="#eee" stroke-width="1"></path><path d="M 128 0 L 0 74" stroke="#eee" stroke-width="1"></path></pattern><polygon points="-201 -301, 760 255, -201 810, -1162 255" fill="url(#gridPatternMinor)"></polygon></g></g><g pointer-events=""><g opacity="1"><g><g><polygon points="-160 26, 160 211, 160 248, -272 498, -336 498, -656 313, -656 276, -224 26" fill="#000000" opacity="0.2"></polygon><polygon points="-160 19, 160 204, 160 241, -272 490, -336 490, -656 305, -656 268, -224 19" fill="#8bc34a" stroke-width="2" stroke="#818181"></polygon><polygon points="-192 37, 128 222, -304 472, -624 287" fill="#e6e7e8" stroke-width="0" stroke="#818181"></polygon></g></g></g><g opacity="1"><g id="28d05c4f-61c5-4409-8a2f-8a730ef66e6f"><svg x="-193" y="61" overflow="visible" style="user-select:none"><g fill="#ffc107"><polygon points="0 0, 279 161, -62 359, -341 197" stroke="#ffc107" stroke-width="40"></polygon></g></svg></g></g><g opacity="1"><g><g><polygon points="-160 100, 32 211, 32 248, -160 359, -224 359, -416 248, -416 211, -224 100" fill="#000000" opacity="0.2"></polygon><polygon points="-160 93, 32 204, 32 241, -160 352, -224 352, -416 241, -416 204, -224 93" fill="#03a9f4" stroke-width="2" stroke="#818181"></polygon><polygon points="-192 111, 0 222, -192 333, -384 222" fill="#e6e7e8" stroke-width="0" stroke="#818181"></polygon></g></g></g></g><g style="pointer-events:none"><g><pattern id="gridPatternMajor" x="0" y="37" width="128" height="74" patternUnits="userSpaceOnUse"><path d="M 64 0 L 128 37 64 74 0 37 z" stroke="#54626f" stroke-width="1" fill="none"></path></pattern><polygon points="-201 -301, 760 255, -201 810, -1162 255" fill="url(#gridPatternMajor)"></polygon></g></g><g pointer-events=""></g><g pointer-events="none"></g><g pointer-events=""></g><g pointer-events=""></g><g pointer-events=""></g><g pointer-events=""></g><g pointer-events=""><g opacity="1"><g id="faa2c966-3305-4b42-8626-4c36ee504d1c" transform="translate(0 0)"><svg x="-496" y="305" overflow="visible" style="user-select:none"><text stroke="#ffffff" stroke-width="4" font-family="Open Sans" y="46.76" font-size="34pt" fill="#ff9800" font-weight="bold" transform="matrix(0.707 0.409 -0.707 0.409 0 0)" xml:space="preserve"><tspan x="8" dy="0">us-east-1a</tspan><tspan x="8" dy="1.1em"></tspan></text><text font-family="Open Sans" y="46.76" font-size="34pt" fill="#ff9800" font-weight="bold" transform="matrix(0.707 0.409 -0.707 0.409 0 0)" xml:space="preserve"><tspan x="8" dy="0">us-east-1a</tspan><tspan x="8" dy="1.1em"></tspan></text></svg></g></g><g opacity="1"><g id="820a22fb-67cc-4eab-a761-cb862f5c7ba2" transform="translate(0 0)"><svg x="-416" y="259" overflow="visible" style="user-select:none"><text stroke="#ffffff" stroke-width="4" font-family="Open Sans" y="46.76" font-size="34pt" fill="#03a9f4" font-weight="bold" transform="matrix(0.707 0.409 -0.707 0.409 0 0)" xml:space="preserve"><tspan x="8" dy="0">subnet-0</tspan></text><text font-family="Open Sans" y="46.76" font-size="34pt" fill="#03a9f4" font-weight="bold" transform="matrix(0.707 0.409 -0.707 0.409 0 0)" xml:space="preserve"><tspan x="8" dy="0">subnet-0</tspan></text></svg></g></g><g opacity="1"><g id="d889089e-1b33-4c74-a3a6-de57dbef0cb4" transform="translate(0 0)"><svg x="-112" y="416" overflow="visible" style="user-select:none"><text stroke="#ffffff" stroke-width="4" font-family="Open Sans" y="59.3" font-size="45pt" fill="#8bc34a" font-weight="bold" transform="matrix(0.707 -0.409 0.707 0.409 0 0)" xml:space="preserve"><tspan x="8" dy="0">Titan Layer</tspan></text><text font-family="Open Sans" y="59.3" font-size="45pt" fill="#8bc34a" font-weight="bold" transform="matrix(0.707 -0.409 0.707 0.409 0 0)" xml:space="preserve"><tspan x="8" dy="0">Titan Layer</tspan></text></svg></g></g></g></g></svg>