<?xml version="1.0" standalone="no"?>
<!DOCTYPE svg PUBLIC "-//W3C//DTD SVG 1.1//EN"
  "http://www.w3.org/Graphics/SVG/1.1/DTD/svg11.dtd">
<svg version="1.1" xmlns="http://www.w3.org/2000/svg" width="3840" height="2160" viewBox="-710.2777777777778 -13 2547.5555555555557 1433" id="ccdiagram"><defs><style type="text/css">@import url(&#x27;https://fonts.googleapis.com/css?family=Open+Sans:400,700&#x27;);</style></defs><g>0<g pointer-events=""><g opacity="1"><g><g><polygon points="-160 26, 1696 1099, 1696 1136, 1248 1395, 1184 1395, -672 322, -672 285, -224 26" fill="#000000" opacity="0.2"></polygon><polygon points="-160 19, 1696 1092, 1696 1129, 1248 1388, 1184 1388, -672 315, -672 278, -224 19" fill="#8bc34a" stroke-width="2" stroke="#818181"></polygon><polygon points="-192 37, 1664 1110, 1216 1369, -640 296" fill="#e6e7e8" stroke-width="0" stroke="#818181"></polygon></g></g></g><g opacity="1"><g id="28d05c4f-61c5-4409-8a2f-8a730ef66e6f"><svg x="-188" y="58" overflow="visible" style="user-select:none"><g fill="#ffc107"><polygon points="0 0, 282 163, -65 364, -348 201" stroke="#ffc107" stroke-width="40"></polygon></g></svg></g></g><g opacity="1"><g><g><polygon points="-160 100, 32 211, 32 248, -160 359, -224 359, -416 248, -416 211, -224 100" fill="#000000" opacity="0.2"></polygon><polygon points="-160 93, 32 204, 32 241, -160 352, -224 352, -416 241, -416 204, -224 93" fill="#03a9f4" stroke-width="2" stroke="#818181"></polygon><polygon points="-192 111, 0 222, -192 333, -384 222" fill="#e6e7e8" stroke-width="0" stroke="#818181"></polygon></g></g></g><g opacity="1"><g id="cf1f5a1c-e40f-48dd-81b0-5f64ac8d6127"><svg x="192" y="280" overflow="visible" style="user-select:none"><g fill="#ffc107"><polygon points="0 0, 283 164, -62 363, -345 199" stroke="#ffc107" stroke-width="40"></polygon></g></svg></g></g><g opacity="1"><g><g><polygon points="224 322, 416 433, 416 470, 224 581, 160 581, -32 470, -32 433, 160 322" fill="#000000" opacity="0.2"></polygon><polygon points="224 315, 416 426, 416 463, 224 574, 160 574, -32 463, -32 426, 160 315" fill="#03a9f4" stroke-width="2" stroke="#818181"></polygon><polygon points="192 333, 384 444, 192 555, 0 444" fill="#e6e7e8" stroke-width="0" stroke="#818181"></polygon></g></g></g><g opacity="1"><g id="f69e184e-f955-4566-ae28-5974e4516fee"><svg x="576" y="500" overflow="visible" style="user-select:none"><g fill="#ffc107"><polygon points="0 0, 282 163, -66 364, -348 201" stroke="#ffc107" stroke-width="40"></polygon></g></svg></g></g><g opacity="1"><g><g><polygon points="992 759, 1184 870, 1184 907, 992 1018, 928 1018, 736 907, 736 870, 928 759" fill="#ffffff" stroke-width="2" stroke="#818181"></polygon><polygon points="960 777, 1152 888, 960 999, 768 888" fill="#e6e7e8" stroke-width="0" stroke="#818181"></polygon></g></g></g><g opacity="1"><g id="9204e911-5d7b-4ba5-8ba3-fa652678c9ca"><svg x="960" y="722" overflow="visible" style="user-select:none"><g fill="#ffc107"><polygon points="0 0, 282 163, -66 364, -348 201" stroke="#ffc107" stroke-width="40"></polygon></g></svg></g></g><g opacity="1"><g><g><polygon points="992 766, 1184 877, 1184 914, 992 1025, 928 1025, 736 914, 736 877, 928 766" fill="#000000" opacity="0.2"></polygon><polygon points="992 759, 1184 870, 1184 907, 992 1018, 928 1018, 736 907, 736 870, 928 759" fill="#03a9f4" stroke-width="2" stroke="#818181"></polygon><polygon points="960 777, 1152 888, 960 999, 768 888" fill="#e6e7e8" stroke-width="0" stroke="#818181"></polygon></g></g></g><g opacity="1"><g><g><polygon points="1376 981, 1568 1092, 1568 1129, 1376 1240, 1312 1240, 1120 1129, 1120 1092, 1312 981" fill="#ffffff" stroke-width="2" stroke="#818181"></polygon><polygon points="1344 999, 1536 1110, 1344 1221, 1152 1110" fill="#e6e7e8" stroke-width="0" stroke="#818181"></polygon></g></g></g><g opacity="1"><g id="8c048e40-8740-4b43-82e3-3bb03cb641b7"><svg x="1344" y="944" overflow="visible" style="user-select:none"><g fill="#ffc107"><polygon points="0 0, 282 163, -66 364, -348 201" stroke="#ffc107" stroke-width="40"></polygon></g></svg></g></g><g opacity="1"><g><g><polygon points="1376 988, 1568 1099, 1568 1136, 1376 1247, 1312 1247, 1120 1136, 1120 1099, 1312 988" fill="#000000" opacity="0.2"></polygon><polygon points="1376 981, 1568 1092, 1568 1129, 1376 1240, 1312 1240, 1120 1129, 1120 1092, 1312 981" fill="#03a9f4" stroke-width="2" stroke="#818181"></polygon><polygon points="1344 999, 1536 1110, 1344 1221, 1152 1110" fill="#e6e7e8" stroke-width="0" stroke="#818181"></polygon></g></g></g><g opacity="1"><g><g><polygon points="608 544, 800 655, 800 692, 608 803, 544 803, 352 692, 352 655, 544 544" fill="#000000" opacity="0.2"></polygon><polygon points="608 537, 800 648, 800 685, 608 796, 544 796, 352 685, 352 648, 544 537" fill="#03a9f4" stroke-width="2" stroke="#818181"></polygon><polygon points="576 555, 768 666, 576 777, 384 666" fill="#e6e7e8" stroke-width="0" stroke="#818181"></polygon></g></g></g></g>0<g pointer-events=""></g><g pointer-events="none"></g><g pointer-events=""></g><g pointer-events=""></g><g pointer-events=""></g><g pointer-events=""></g><g pointer-events=""><g opacity="1"><g id="faa2c966-3305-4b42-8626-4c36ee504d1c" transform="translate(0 0)"><svg x="-480" y="315" overflow="visible" style="user-select:none"><text stroke="#ffffff" stroke-width="4" font-family="Open Sans" y="46.76" font-size="34pt" fill="#ff9800" font-weight="bold" transform="matrix(0.707 0.409 -0.707 0.409 0 0)" xml:space="preserve"><tspan x="8" dy="0">us-east-1a</tspan><tspan x="8" dy="1.1em"></tspan></text><text font-family="Open Sans" y="46.76" font-size="34pt" fill="#ff9800" font-weight="bold" transform="matrix(0.707 0.409 -0.707 0.409 0 0)" xml:space="preserve"><tspan x="8" dy="0">us-east-1a</tspan><tspan x="8" dy="1.1em"></tspan></text></svg></g></g><g opacity="1"><g id="820a22fb-67cc-4eab-a761-cb862f5c7ba2" transform="translate(0 0)"><svg x="-416" y="278" overflow="visible" style="user-select:none"><text stroke="#ffffff" stroke-width="4" font-family="Open Sans" y="46.76" font-size="34pt" fill="#03a9f4" font-weight="bold" transform="matrix(0.707 0.409 -0.707 0.409 0 0)" xml:space="preserve"><tspan x="8" dy="0">subnet-0</tspan></text><text font-family="Open Sans" y="46.76" font-size="34pt" fill="#03a9f4" font-weight="bold" transform="matrix(0.707 0.409 -0.707 0.409 0 0)" xml:space="preserve"><tspan x="8" dy="0">subnet-0</tspan></text></svg></g></g><g opacity="1"><g id="62f85e5b-4cd6-4cc6-9fea-19807cc0ae5f" transform="translate(0 0)"><svg x="-32" y="500" overflow="visible" style="user-select:none"><text stroke="#ffffff" stroke-width="4" font-family="Open Sans" y="46.76" font-size="34pt" fill="#03a9f4" font-weight="bold" transform="matrix(0.707 0.409 -0.707 0.409 0 0)" xml:space="preserve"><tspan x="8" dy="0">subnet-1</tspan></text><text font-family="Open Sans" y="46.76" font-size="34pt" fill="#03a9f4" font-weight="bold" transform="matrix(0.707 0.409 -0.707 0.409 0 0)" xml:space="preserve"><tspan x="8" dy="0">subnet-1</tspan></text></svg></g></g><g opacity="1"><g id="bda88844-936a-4807-a2e4-c0953ea9831d" transform="translate(0 0)"><svg x="336" y="712" overflow="visible" style="user-select:none"><text stroke="#ffffff" stroke-width="4" font-family="Open Sans" y="46.76" font-size="34pt" fill="#03a9f4" font-weight="bold" transform="matrix(0.707 0.409 -0.707 0.409 0 0)" xml:space="preserve"><tspan x="8" dy="0">subnet-2</tspan><tspan x="8" dy="1.1em"></tspan></text><text font-family="Open Sans" y="46.76" font-size="34pt" fill="#03a9f4" font-weight="bold" transform="matrix(0.707 0.409 -0.707 0.409 0 0)" xml:space="preserve"><tspan x="8" dy="0">subnet-2</tspan><tspan x="8" dy="1.1em"></tspan></text></svg></g></g><g opacity="1"><g id="adc284b0-d6dc-4258-9ab5-a385a1b44b09" transform="translate(0 0)"><svg x="-96" y="537" overflow="visible" style="user-select:none"><text stroke="#ffffff" stroke-width="4" font-family="Open Sans" y="46.76" font-size="34pt" fill="#ff9800" font-weight="bold" transform="matrix(0.707 0.409 -0.707 0.409 0 0)" xml:space="preserve"><tspan x="8" dy="0">us-east-1b</tspan><tspan x="8" dy="1.1em"></tspan></text><text font-family="Open Sans" y="46.76" font-size="34pt" fill="#ff9800" font-weight="bold" transform="matrix(0.707 0.409 -0.707 0.409 0 0)" xml:space="preserve"><tspan x="8" dy="0">us-east-1b</tspan><tspan x="8" dy="1.1em"></tspan></text></svg></g></g><g opacity="1"><g id="4443333d-794e-4055-aa57-941e6d9421ef" transform="translate(0 0)"><svg x="272" y="749" overflow="visible" style="user-select:none"><text stroke="#ffffff" stroke-width="4" font-family="Open Sans" y="46.76" font-size="34pt" fill="#ff9800" font-weight="bold" transform="matrix(0.707 0.409 -0.707 0.409 0 0)" xml:space="preserve"><tspan x="8" dy="0">us-east-1c</tspan><tspan x="8" dy="1.1em"></tspan></text><text font-family="Open Sans" y="46.76" font-size="34pt" fill="#ff9800" font-weight="bold" transform="matrix(0.707 0.409 -0.707 0.409 0 0)" xml:space="preserve"><tspan x="8" dy="0">us-east-1c</tspan><tspan x="8" dy="1.1em"></tspan></text></svg></g></g><g opacity="1"><g id="a670b510-9dae-4de5-9179-6d342616aca9" transform="translate(0 0)"><svg x="736" y="944" overflow="visible" style="user-select:none"><text stroke="#ffffff" stroke-width="4" font-family="Open Sans" y="46.76" font-size="34pt" fill="#03a9f4" font-weight="bold" transform="matrix(0.707 0.409 -0.707 0.409 0 0)" xml:space="preserve"><tspan x="8" dy="0">subnet-3</tspan><tspan x="8" dy="1.1em"></tspan></text><text font-family="Open Sans" y="46.76" font-size="34pt" fill="#03a9f4" font-weight="bold" transform="matrix(0.707 0.409 -0.707 0.409 0 0)" xml:space="preserve"><tspan x="8" dy="0">subnet-3</tspan><tspan x="8" dy="1.1em"></tspan></text></svg></g></g><g opacity="1"><g id="8c714b93-428c-4265-b5b0-7bfdd6344f9c" transform="translate(0 0)"><svg x="672" y="981" overflow="visible" style="user-select:none"><text stroke="#ffffff" stroke-width="4" font-family="Open Sans" y="46.76" font-size="34pt" fill="#ff9800" font-weight="bold" transform="matrix(0.707 0.409 -0.707 0.409 0 0)" xml:space="preserve"><tspan x="8" dy="0">us-east-1d</tspan><tspan x="8" dy="1.1em"></tspan><tspan x="8" dy="1.1em"></tspan></text><text font-family="Open Sans" y="46.76" font-size="34pt" fill="#ff9800" font-weight="bold" transform="matrix(0.707 0.409 -0.707 0.409 0 0)" xml:space="preserve"><tspan x="8" dy="0">us-east-1d</tspan><tspan x="8" dy="1.1em"></tspan><tspan x="8" dy="1.1em"></tspan></text></svg></g></g><g opacity="1"><g id="323f7991-e898-4a79-8c4c-91f199667a57" transform="translate(0 0)"><svg x="1104" y="1156" overflow="visible" style="user-select:none"><text stroke="#ffffff" stroke-width="4" font-family="Open Sans" y="46.76" font-size="34pt" fill="#03a9f4" font-weight="bold" transform="matrix(0.707 0.409 -0.707 0.409 0 0)" xml:space="preserve"><tspan x="8" dy="0">subnet-4</tspan><tspan x="8" dy="1.1em"></tspan></text><text font-family="Open Sans" y="46.76" font-size="34pt" fill="#03a9f4" font-weight="bold" transform="matrix(0.707 0.409 -0.707 0.409 0 0)" xml:space="preserve"><tspan x="8" dy="0">subnet-4</tspan><tspan x="8" dy="1.1em"></tspan></text></svg></g></g><g opacity="1"><g id="f1628826-4feb-4e28-956b-0c91e039c299" transform="translate(0 0)"><svg x="1040" y="1193" overflow="visible" style="user-select:none"><text stroke="#ffffff" stroke-width="4" font-family="Open Sans" y="46.76" font-size="34pt" fill="#ff9800" font-weight="bold" transform="matrix(0.707 0.409 -0.707 0.409 0 0)" xml:space="preserve"><tspan x="8" dy="0">us-east-1e</tspan><tspan x="8" dy="1.1em"></tspan></text><text font-family="Open Sans" y="46.76" font-size="34pt" fill="#ff9800" font-weight="bold" transform="matrix(0.707 0.409 -0.707 0.409 0 0)" xml:space="preserve"><tspan x="8" dy="0">us-east-1e</tspan><tspan x="8" dy="1.1em"></tspan></text></svg></g></g><g opacity="1"><g id="a6074d38-0cde-4f08-a94d-f56fb778e6f9" transform="translate(0 0)"><svg x="1344" y="1351" overflow="visible" style="user-select:none"><text stroke="#ffffff" stroke-width="4" font-family="Open Sans" y="71.84" font-size="56pt" fill="#8bc34a" font-weight="bold" transform="matrix(0.707 -0.409 0.707 0.409 0 0)" xml:space="preserve"><tspan x="8" dy="0">Titan Layer</tspan></text><text font-family="Open Sans" y="71.84" font-size="56pt" fill="#8bc34a" font-weight="bold" transform="matrix(0.707 -0.409 0.707 0.409 0 0)" xml:space="preserve"><tspan x="8" dy="0">Titan Layer</tspan></text></svg></g></g></g></g></svg>